<svg fill="#FFFFFF" id="eAemdITHBiD1" xmlns="http://www.w3.org/2000/svg" xmlns:xlink="http://www.w3.org/1999/xlink" viewBox="0 0 600 52" shape-rendering="geometricPrecision" text-rendering="geometricPrecision"><g transform="translate(-498.254-197.66)"><g><path d="M536,226.3c1.6-1.5,3-3.2,4-5.2s1.5-4.2,1.5-6.5c0-2.9-.8-5.7-2.3-8.1-1.5-2.3-3.5-4.2-6-5.5s-5.2-2-8-2h-26.5v49.2h9.2v-17.5h13.3l11.9,17.1.3.4l11.4.1-13.4-19.1c1.7-.7,3.3-1.7,4.6-2.9Zm-4.1-11.7c0,1.2-.4,2.4-1,3.5-.7,1.1-1.7,2-2.8,2.7-1.2.7-2.6,1-4,1h-16.1v-13.8h15.5c1.5,0,2.9.3,4.2.9c1.2.5,2.2,1.4,3,2.4.8.9,1.2,2.1,1.2,3.3v0Z"/></g><g><polygon points="651.9,239.2 622.9,239.2 622.9,199 613.7,199 613.7,248.2 651.9,248.2"/></g><g><polygon points="703,239.2 674.1,239.2 674.1,199 664.8,199 664.8,248.2 703,248.2"/></g><g><polygon points="754,239.2 724.7,239.2 724.7,227.5 750.3,227.5 750.3,218.5 724.7,218.5 724.7,208 754,208 754,199 715.5,199 715.5,248.2 754,248.2"/></g><g><path d="M776.1,230.7h13.3l11.9,17.1.3.4l11.4.1-13.5-19.1c1.7-.7,3.2-1.7,4.6-2.9c1.6-1.5,3-3.2,4-5.2s1.5-4.2,1.5-6.5c0-2.9-.8-5.7-2.3-8.1-1.5-2.3-3.5-4.2-5.9-5.5-2.5-1.3-5.2-2-8-2h-26.5v49.2h9.2v-17.5Zm20-9.9c-1.2.7-2.6,1-4,1h-16.1v-13.8h15.5c1.5,0,2.9.3,4.2.9c1.2.5,2.2,1.4,3,2.4.7,1,1.1,2.2,1.1,3.4s-.4,2.4-1,3.5c-.6,1-1.5,1.9-2.7,2.6v0Z"/></g><g id="eAemdITHBiD13"><path d="M577.1,198.3c-14,0-25.3,11.3-25.3,25.3h9.2c0-8.9,7.2-16.1,16.1-16.1s16.1,7.2,16.1,16.1-7.2,16.1-16.1,16.1c0,0,0,0,0,0v9.2c14,0,25.3-11.3,25.3-25.3s-11.3-25.3-25.3-25.3Z"/></g><g><path d="M882.4,222.6v0c-2.1-1-4.2-1.8-6.5-2.3s-4.8-1-7.4-1.4c-2.3-.3-4.6-.7-6.8-1.3-1.5-.4-3-1.1-4.2-2.1-.9-.8-1.4-2-1.3-3.2c0-1.8,1.2-3.4,2.9-4c2.5-1.2,5.2-1.7,7.9-1.6c2.8-.1,5.6.6,8.1,1.8c2.3,1.2,4.2,2.8,5.8,4.8l.7.9l6.2-6.7-.5-.6c-2.1-2.9-4.9-5.1-8.2-6.5-7.1-2.8-15.1-3-22.3-.5-2.9,1-5.5,2.7-7.5,5-1.9,2.2-2.9,5.1-2.9,8-.1,2.7.8,5.4,2.5,7.6c1.8,2.1,4.1,3.8,6.8,4.8c3.2,1.3,6.6,2.1,10,2.5c3.5.4,7,1.2,10.4,2.3c1.8.4,3.1,2,3.1,3.8c0,1.3-.5,2.6-1.6,3.4-1.3,1.1-2.8,1.8-4.5,2.2-1.9.5-3.8.8-5.8.8-3.3.1-6.5-.6-9.4-2.1-2.8-1.6-5.3-3.7-7.5-6.2l-.8-.9-5.9,7.6.5.6c2.7,3.2,6.2,5.7,10.1,7.3c4.1,1.5,8.4,2.3,12.7,2.2c3.9.1,7.8-.6,11.4-1.9c3-1.1,5.7-3,7.7-5.6c1.8-2.5,2.8-5.5,2.7-8.6.1-2.2-.6-4.4-1.8-6.2-1.1-1.6-2.7-2.9-4.6-3.9Z"/></g><g><path d="M1072.9,227.5c-.5,1.3-1,2.7-1.4,4.1l-.4,1.2c-.1-.4-.3-.8-.4-1.1-.5-1.3-1.1-2.6-1.6-3.9l-8.6-20.6h-8.2l-8.9,20.7c-.6,1.3-1.2,2.7-1.7,4-.1.4-.3.7-.4,1.1-.1-.3-.2-.7-.3-1-.4-1.4-.9-2.7-1.3-3.9l-10-29h-10l17.5,49.3h6.7l12.2-28.3l12.1,28.3h6.4l19-49.3h-9.9l-10.8,28.4Z"/></g><g transform="translate(76.567 12.526)"><g><path d="M1015.5,225.4c3.1-.1,5.6,2.3,5.7,5.4s-2.3,5.6-5.4,5.7-5.6-2.3-5.7-5.4c0-.1,0-.1,0-.2-.1-2.9,2.3-5.4,5.4-5.5Zm0,10.5c2.7.1,5-2,5.1-4.7s-2-5-4.7-5.1-5,2-5.1,4.7c0,.1,0,.1,0,.2-.1,2.6,2,4.8,4.6,4.9c0,0,0,0,.1,0v0Zm-1.8-8h2c.9-.1,1.7.7,1.8,1.6c0,.1,0,.1,0,.2c0,.8-.4,1.4-1.2,1.6v0c.1.1.1.2.2.3l1.2,2.3h-.8l-1.3-2.6h-1.3v2.6h-.7l.1-6Zm1.9,3c.6,0,1.1-.4,1.2-1c0-.1,0-.1,0-.2.1-.6-.4-1.1-1-1.2-.1,0-.1,0-.2,0h-1.3v2.4h1.3Z"/></g></g><g transform="translate(18.1 0.213)"><g><rect width="9.2" height="17.8" rx="0" ry="0" transform="translate(883.2 230.2)"/></g><g><rect width="9.2" height="22.3" rx="0" ry="0" transform="translate(925.1 198.7)"/></g><g><polygon points="934.3,230.2 934.3,221 892.4,221 892.4,198.7 883.2,198.7 883.2,230.2 925.1,230.2 925.1,248 934.3,248 934.3,230.2 934.3,230.2 934.3,230.2"/></g></g><g id="eAemdITHBiD29"><path d="M989.1,198.2v9.2c8.9,0,16.1,7.2,16.1,16.1s-7.2,16.1-16.1,16.1-16.1-7.2-16.1-16.1v0h-9.2c0,14,11.3,25.3,25.3,25.3s25.3-11.3,25.3-25.3-11.3-25.3-25.3-25.3v0Z"/></g></g>

</svg>
